<svg width="156" height="22" fill="none" xmlns="http://www.w3.org/2000/svg"><path d="M15.37 8.789L9.92.899h2.392l4.3 6.234L20.96.9h2.3l-5.428 7.843L23.49 17h-2.438l-4.485-6.624L12.036 17H9.69l5.68-8.211zm15.494 8.441a6.743 6.743 0 01-2.23-.368 5.43 5.43 0 01-1.864-1.15c-.536-.521-.966-1.173-1.288-1.955-.322-.782-.483-1.694-.483-2.737v-.46c0-.981.161-1.848.483-2.6.322-.75.752-1.371 1.288-1.862a5.151 5.151 0 011.863-1.127 6.384 6.384 0 012.231-.391c.782 0 1.526.13 2.231.39a5.151 5.151 0 011.863 1.128c.537.49.966 1.112 1.288 1.863.322.751.483 1.618.483 2.599v.46c0 1.043-.16 1.955-.483 2.737-.322.782-.751 1.434-1.288 1.955a5.43 5.43 0 01-1.863 1.15 6.743 6.743 0 01-2.23.368zm0-1.84c.46 0 .92-.077 1.38-.23a3.48 3.48 0 001.22-.76c.352-.352.636-.804.85-1.356.23-.552.345-1.227.345-2.024v-.46c0-.736-.115-1.365-.345-1.886a3.704 3.704 0 00-.85-1.288 3.214 3.214 0 00-1.22-.736 4.35 4.35 0 00-1.38-.23c-.46 0-.92.077-1.38.23-.46.153-.866.399-1.219.736a3.975 3.975 0 00-.874 1.288c-.214.521-.322 1.15-.322 1.886v.46c0 .797.108 1.472.322 2.024.23.552.522 1.004.874 1.357.353.337.76.59 1.22.759.46.153.92.23 1.38.23zm16.022-3.243a6.337 6.337 0 01-1.288.575c-.49.169-1.111.253-1.863.253a7.322 7.322 0 01-1.909-.23 3.51 3.51 0 01-1.403-.736c-.383-.337-.674-.774-.874-1.311-.199-.537-.299-1.196-.299-1.978V4.81h2.024v3.565c0 .521.046.958.138 1.31.108.354.276.637.506.852.23.215.522.368.874.46.353.092.782.138 1.288.138.69 0 1.28-.07 1.771-.207.491-.138.836-.284 1.035-.437V4.81h2.024V17h-2.024v-4.853zm7.537 9.683c-.23 0-.46-.023-.69-.07v-1.84c.23.047.46.07.69.07.23 0 .43-.038.598-.115.169-.077.33-.222.483-.437.154-.215.315-.521.483-.92.184-.383.391-.89.621-1.518L51.433 4.81h2.254l3.956 9.89 3.588-9.89h2.162L58.793 17a28.688 28.688 0 01-.92 2.208c-.291.613-.605 1.112-.943 1.495-.322.399-.682.682-1.08.85-.4.185-.875.277-1.427.277zM71.663.9h4.14v6.37h1.15L81.875.9h4.508l-6.21 7.52 6.44 8.58h-4.83l-4.83-6.831h-1.15v6.83h-4.14V.9zm16.683 3.91h3.266v1.656a4.048 4.048 0 011.426-1.357c.322-.184.683-.33 1.081-.437a4.94 4.94 0 011.288-.161c1.718 0 3.021.506 3.91 1.518.89 1.012 1.334 2.522 1.334 4.53v.46c0 1.044-.122 1.956-.368 2.738-.245.782-.598 1.434-1.058 1.955-.46.521-1.012.92-1.656 1.196-.644.26-1.364.39-2.162.39a4.44 4.44 0 01-1.978-.46 4.276 4.276 0 01-1.54-1.38V21.6h-3.543V4.81zm6.21 9.568c.706 0 1.288-.284 1.748-.851.476-.567.713-1.403.713-2.507v-.46c0-1.058-.23-1.84-.69-2.346-.444-.521-1.035-.782-1.77-.782-.752 0-1.388.238-1.91.713-.506.46-.759 1.15-.759 2.07v1.15c0 .966.253 1.71.76 2.23a2.597 2.597 0 001.908.783zm14.036 2.921c-.89 0-1.725-.123-2.507-.368a5.562 5.562 0 01-2.001-1.173c-.568-.521-1.012-1.173-1.334-1.955-.322-.797-.483-1.725-.483-2.783v-.46c0-1.012.153-1.894.46-2.645.322-.751.751-1.38 1.288-1.886a5.305 5.305 0 011.932-1.127 7.315 7.315 0 012.415-.391c2.008 0 3.526.521 4.554 1.564 1.027 1.027 1.541 2.522 1.541 4.485v1.265h-8.556c.015.475.099.882.253 1.219a2.443 2.443 0 001.426 1.288c.322.092.659.138 1.012.138.674 0 1.203-.1 1.587-.3.398-.214.659-.497.782-.85h3.266c-.246 1.334-.851 2.33-1.817 2.99-.966.66-2.239.989-3.818.989zm-.115-9.982a3.87 3.87 0 00-.943.115c-.292.077-.56.207-.805.39-.23.17-.422.392-.575.668-.138.276-.215.613-.23 1.012h5.06c0-.43-.069-.782-.207-1.058a1.819 1.819 0 00-.552-.667 1.828 1.828 0 00-.782-.345 3.974 3.974 0 00-.966-.115zm7.129 6.785h1.288c.322-.475.552-1.127.69-1.955.138-.843.207-1.986.207-3.427V4.81h10.005v9.292h1.38v5.773h-2.99V17h-7.59v2.875h-2.99v-5.773zm8.648 0V7.708h-3.197V9.18c0 1.15-.062 2.124-.184 2.92-.107.798-.276 1.465-.506 2.002h3.887zm6.762-9.292h3.45v7.36l5.175-7.36h3.105V17h-3.45V9.64L134.121 17h-3.105V4.81zm17.327 2.898h-3.749V4.81h11.04v2.898h-3.749V17h-3.542V7.708z" fill="#fff"/><path fill-rule="evenodd" clip-rule="evenodd" d="M3.028 1.78H.46l4.907 7.244L0 16.43h2.92l5.125-7.405L3.028 1.78z" fill="#ABDA12"/></svg>