<svg width="75" height="18" fill="none" xmlns="http://www.w3.org/2000/svg"><g clip-path="url(#clip0)" fill-rule="evenodd" clip-rule="evenodd"><path d="M40.324 4.36c.18.18 1.804 4.496 1.974 5.03.169.57.407 1.118.71 1.63.563.128.616-.437.786-.885.923-2.419 2.324-5.946 3.024-8.323.488-1.151.53-1.46-.35-1.46s-.785.575-1.136 1.321c-.307 1.418-1.496 4.413-1.93 5.787 0 .181 0 .181-.224.181-.732-2.046-1.58-4.55-2.408-6.575-.223-.394-.616-.48-.881.405-.446 1.407-1.061 3.08-1.539 4.444 0 0-.573 1.726-.615 1.812a5.34 5.34 0 01-.658-1.588c-.658-1.63-1.231-3.39-1.793-5.02-.138-.309-.138-.49-.446-.671a1.828 1.828 0 00-.966-.085c-.87.138-.307.842-.127 1.364 1.061 2.867 2.239 6.309 3.417 9.037a.415.415 0 00.71.096c.17-.33 2.325-6.5 2.452-6.5zM.17.533a.845.845 0 00.043.533c.18.746-.35 9.25-.212 9.591.43.194.91.24 1.369.128.212-.223.127-.437.127-.788 0-1.503.127-2.952.127-4.498.053-.575.096-.97.096-1.321 0-.352 0-.31.085-.394.085-.086 1.475 2.344 1.613 2.61.265.523.785 1.322 1.135 1.94.53.97.796.31.923.085.308-.394 2.685-4.582 2.855-4.667.159.17.159 4.358.159 4.667 0 2.292-.266 2.516 1.178 2.42.445 0 .488-.352.445-.746V7.759c-.117-1.897-.201-4.06-.201-5.947 0-.224.084-1.066.084-1.194a.859.859 0 00-1.06-.18c-.308.18-.393.575-.616.841-.891 1.588-2.09 3.39-2.929 4.892-.308.533-.308.351-.573 0-.573-.842-1.316-2.292-1.836-3.133l-1.06-1.759a3.646 3.646 0 00-.563-.842C1.062.224.479.395.17.533zm55.993 4.934a2.934 2.934 0 012.727-.532c1.401.618 1.581 2.696.966 3.708a2.283 2.283 0 01-2.462.949 3.176 3.176 0 01-1.23-.533V5.467zm0-1.502a30.646 30.646 0 010-3.485c0-.48-.17-.565-.615-.394-1.061.447-1.061.266-.913 1.236.085.49 0 6.17 0 6.97 0 1.577-.222 1.94 2.059 2.6a4.904 4.904 0 003.788-.757c2.24-1.843 1.624-7.044-2.462-6.65a8.2 8.2 0 00-1.06.128c-.139.043-.659.352-.722.352h-.075zm-30.941 6.788a4.13 4.13 0 00.138-1.716 12.592 12.592 0 010-1.811c.127 0 .265.224.53.49.266.266 2.451 2.558 2.802 2.814a1.06 1.06 0 00.923.266c.308 0 .796 0 .966-.213 0-.31-.616-.8-.881-1.066s-.605-.607-.913-.97a18.74 18.74 0 01-1.889-1.929c0-.096 2.41-2.131 2.855-2.515.17-.181.35-.224.308-.49a2.832 2.832 0 00-1.677 0c-.212.096-1.666 1.417-2.059 1.769-.127.128-.88.927-.965.885-.128-.405 0-5.915-.085-6.224-.085-.31-1.581.181-1.539.714.083.374.126.757.128 1.14v7.62c0 .266-.085 1.066.095 1.194.413.106.844.12 1.263.042zM13.792 7.14c.488-.127 2.122.267 2.196.704.043.472.043.946 0 1.417-.307.395-2.42 1.183-3.12-.223a1.497 1.497 0 010-1.28 1.362 1.362 0 01.924-.617zm2.239-.532a3.832 3.832 0 00-1.358-.565 5.009 5.009 0 00-1.804.128 2.408 2.408 0 00-1.247.852 2.425 2.425 0 001.162 3.773c.839.288 1.75.288 2.589 0 .18-.085.53-.309.658-.352.127-.042.18.31.35.395.17.085.965 0 1.188-.213.223-.214.266-.182.128-.49a2.215 2.215 0 01-.213-1.322V5.638a1.87 1.87 0 00-.307-1.279c-.839-1.673-5.89-1.012-5.486.405.403 1.418 1.06-.49 3.29-.224 1.198.128 1.07 1.28 1.07 2.068h-.02zm51.944-.213h-3.64a1.9 1.9 0 01.563-1.151 2.118 2.118 0 011.231-.522 1.765 1.765 0 011.316.437 1.47 1.47 0 01.53 1.236zm-3.735 1.14c.266-.128 4.245 0 4.966 0 .722 0 .393-2.376-.923-3.346a3.545 3.545 0 00-5.2 1.073 3.582 3.582 0 00-.477 1.922 3.637 3.637 0 00.438 1.876 3.616 3.616 0 001.334 1.385c1.178.799 4.34.756 4.733-.48.488-1.588-.658-.703-1.061-.533-.34.14-.697.23-1.061.267-2.345.266-2.918-1.812-2.749-2.164zM48.312 6.394c.037-.455.243-.88.577-1.19a1.81 1.81 0 011.226-.483c.913-.096 1.974.703 1.794 1.673h-3.597zm-.18 1.066h4.923c.573 0 .477-.352.435-.789a3.432 3.432 0 00-.533-1.664 3.412 3.412 0 00-2.978-1.575 3.395 3.395 0 00-1.667.5 3.585 3.585 0 00-1.338 1.405 3.604 3.604 0 00-.413 1.9 3.337 3.337 0 001.793 3.196c1.496.928 4.435.533 4.7-.522 0-.309.213-1.066-.265-.884a5.852 5.852 0 01-1.857.671 2.641 2.641 0 01-1.973-.533c-.382-.309-.998-1.236-.828-1.705zm23.832 3.335c.265-.266.223-.394.223-.788V8.94c0-1.407-.266-3.74 1.358-4.093.35-.085.435.214.88.128a2.05 2.05 0 00.574-.874c0-.67-1.061-.799-2.027-.362-.308.139-.563.618-.785.66 0-.393.085-.564-.18-.916a2.39 2.39 0 00-.966.31c-.435.213-.52.213-.435.745.085.533 0 4.189 0 5.063.042 1.332.042 1.29 1.358 1.193zm-51.738-.042v-.085c.123-1.083.155-2.174.095-3.261 0-.842.213-2.206 1.136-2.473.742-.266.785.437 1.273 0 1.136-1.193-.393-1.673-1.316-1.279-.923.395-.796.704-1.06.789a2.142 2.142 0 010-.522c0-.224-.096-.224-.181-.352a1.83 1.83 0 00-.966.267c-.435.17-.573.213-.435.746.093.817.122 1.64.085 2.461v2.43c.096 1.322-.085 1.418 1.369 1.279z" fill="#221F20"/><path d="M40.016 12.17a23.84 23.84 0 00-5.136 1.226c-.52.224-1.061.352-1.581.576-1.061.394-2.059.746-3.11 1.15-.35.129-2.854.875-3.289.97-2.122.523-5.305 1.141-7.332.214-.966-.48-1.061 1.012 1.135 1.545a8.929 8.929 0 003.863-.17c1.061-.224 2.334-.619 3.342-.928 1.008-.309 2.197-.66 3.29-.97.265-.095.477-.18.785-.266l1.624-.49c.307-.085.53-.213.796-.31l1.676-.393c.308-.086.53-.17.796-.267a31.704 31.704 0 016.76-.703c.562 0 1.4.138 1.973.224 1.061.128.828-.437.127-.8-1.82-.7-3.793-.91-5.72-.607z" fill="#F9CC46"/></g><defs><clipPath id="clip0"><path fill="#fff" d="M0 0h75v18H0z"/></clipPath></defs></svg>