<svg width="130" height="144" fill="none" xmlns="http://www.w3.org/2000/svg"><path d="M47.595 102.824c.552.551 1.105.974 1.933.911.5-.074 1.19-.445 1.912-1.165a10.504 10.504 0 001.37-1.663l2.04 2.034 1.211-1.208-5.407-5.39-1.21 1.207 2.368 2.362c-.319.487-.67.921-1.052 1.302-.552.551-.987.795-1.328.731-.35-.074-.51-.19-.796-.476l-1.562-1.557-1.2 1.197 1.72 1.715zm10.168-9.903l.254-.254 3.57 3.558 1.168-1.165-5.407-5.39-1.391 1.387 1.349 5.772-.255.254-3.57-3.559-1.168 1.165 5.407 5.391 1.36-1.356-1.317-5.803zm3.578-5.199l4.387 4.374 1.2-1.197-4.386-4.374 1.816-1.81-1.02-1.017-4.844 4.829 1.02 1.017 1.827-1.822zm13.041-4.253l-3.59-3.58c-1.307-1.302-2.837-1.07-4.292.382-1.285 1.281-1.551 2.795-.595 3.854l1.19-1.186c-.404-.508-.276-1.101.393-1.768.765-.763 1.498-.773 2.124-.149l.16.16-1.594 1.588c-.722.72-1.083 1.44-1.073 2.15.011.71.255 1.313.744 1.8a2.42 2.42 0 001.785.741c.69-.01 1.328-.307 1.922-.9.733-.73 1.052-1.472.957-2.224l.254-.254.5.498 1.115-1.112zm-3.431 1.747c-.69.689-1.413.773-1.965.223-.563-.562-.5-1.282.255-2.034l1.38-1.376.415.413a1.8 1.8 0 01.542 1.366c-.01.54-.223 1.006-.627 1.408zm1.947-9.015l4.387 4.374 1.2-1.197-4.387-4.374 1.817-1.81-1.02-1.017-4.844 4.829 1.02 1.017 1.827-1.822zm3.14-5.164l5.407 5.39 2.656-2.647c1.35-1.345 1.392-2.806.212-3.982-1.157-1.154-2.592-1.08-3.94.265l-1.456 1.45-1.678-1.673-1.2 1.197zm5.588 3.177l-1.742-1.737 1.285-1.281c.776-.773 1.36-.784 1.944-.201.563.561.574 1.165-.202 1.938l-1.285 1.281z" fill="#fff"/><path d="M31.777 5.04l67.167 67.32-67.167 67.319" stroke="#fff"/></svg>