<svg width="348" height="222" fill="none" xmlns="http://www.w3.org/2000/svg"><path d="M324.75 36.274c0 2.388.674 4.723 1.938 6.709 1.264 1.985 3.06 3.533 5.161 4.447a10.993 10.993 0 006.645.687c2.23-.466 4.279-1.616 5.888-3.304a12.277 12.277 0 003.147-6.183 12.64 12.64 0 00-.654-6.977c-.871-2.206-2.345-4.092-4.236-5.419a11.115 11.115 0 00-6.389-2.035c-3.047.009-5.968 1.284-8.123 3.546-2.155 2.263-3.369 5.33-3.377 8.53zM30.498 43.609L15.68 2.482.066 43.609h30.432zm42.095 38.413a8.431 8.431 0 004.907 2.423v3.005H31.9v-3.037a22.82 22.82 0 008.094-1.454 4.098 4.098 0 001.817-1.64 4.18 4.18 0 00.573-2.398 22.184 22.184 0 00-1.753-7.302l-9.05-24.973h-32.63l-3.888 10.467A52.666 52.666 0 00-9.11 74.074a8.734 8.734 0 00.66 4.38 8.607 8.607 0 002.718 3.471 20.235 20.235 0 009.974 2.488v3.037H-26v-3.037c4.929-.905 9.241-6.236 12.938-15.992L21.257-20.65h10.388l36.39 95.338a18.905 18.905 0 004.558 7.334zm97.711-76.487a34.06 34.06 0 00-22.659-12.103v81.343c10.561-1.609 18.21-5.762 22.947-12.36 4.736-6.6 7.105-16.095 7.105-28.617 0-12.522-2.465-21.728-7.393-28.134v-.129zM100.791 61.9a34.16 34.16 0 0022.819 12.618V-6.697c-10.668 1.502-18.37 5.43-23.107 11.782-4.737 6.352-7.126 15.633-7.169 27.844 0 12.747 2.486 22.404 7.457 28.97zm87.435 1.448c-9.665 7.618-23.192 12.254-40.581 13.906v5.537c-.11 2.826.17 5.653.832 8.401.234.787.644 1.51 1.199 2.112a5.344 5.344 0 002.001 1.365 28.462 28.462 0 007.393 1.255v3.026h-46.725v-3.026a29.213 29.213 0 007.296-1.255 5.18 5.18 0 002.016-1.352 5.231 5.231 0 001.185-2.125c.648-2.75.917-5.577.8-8.401v-5.537c-17.944-1.352-31.652-5.719-41.125-13.101a36.66 36.66 0 01-10.836-13.64A36.88 36.88 0 0168.34 33.38a35.386 35.386 0 013.603-16.505 35.165 35.165 0 0110.83-12.917c9.645-7.49 23.257-11.953 40.838-13.39v-5.409a31.037 31.037 0 00-.8-8.401 5.23 5.23 0 00-1.185-2.125 5.18 5.18 0 00-2.016-1.352 29.217 29.217 0 00-7.296-1.255V-31h46.821v3.026c-2.508.09-4.994.512-7.393 1.255a5.344 5.344 0 00-2.001 1.365 5.382 5.382 0 00-1.199 2.112 30.769 30.769 0 00-.832 8.401v5.537c17.922 1.266 31.588 5.45 40.997 12.554a35.377 35.377 0 0110.73 13.162 35.59 35.59 0 013.384 16.678 37.004 37.004 0 01-3.634 16.893 36.774 36.774 0 01-10.896 13.365" fill="#fff"/><path d="M308.112-15.017a5.223 5.223 0 00-3.206 3.458 28.233 28.233 0 00-.866 8.294v74.704a28.233 28.233 0 00.866 8.294 5.213 5.213 0 003.206 3.458 25.327 25.327 0 007.438 1.217v3.042h-46.745v-3.01a25.84 25.84 0 007.374-1.217 5.359 5.359 0 003.206-3.458 29.69 29.69 0 00.834-8.293V.802l-43.123 72.687a21.417 21.417 0 001.026 6.82 5.084 5.084 0 003.206 3.01 25.968 25.968 0 007.086 1.153v2.978h-46.682v-3.01c2.483-.05 4.945-.46 7.31-1.217a5.19 5.19 0 003.206-3.458c.688-2.72.99-5.522.898-8.326V-3.392a29.92 29.92 0 00-.93-8.422 5.188 5.188 0 00-3.206-3.458 25.677 25.677 0 00-7.31-1.217v-3.01h46.714v3.01a25.192 25.192 0 00-7.374 1.217 5.192 5.192 0 00-3.207 3.458 29.982 29.982 0 00-.801 8.293v70.447l43.09-72.88a19.162 19.162 0 00-1.186-6.404 5.258 5.258 0 00-3.206-2.882 29.211 29.211 0 00-6.957-1.057v-3.01h46.745v3.01a25.327 25.327 0 00-7.438 1.217M132.7 116.944c-2.476.057-4.93.467-7.291 1.218a5.176 5.176 0 00-3.197 3.46 31.384 31.384 0 00-.8 8.298v74.942a31.56 31.56 0 00.8 8.299 5.188 5.188 0 003.197 3.46 26.06 26.06 0 007.291 1.218v3.011H-26v-3.011a25.546 25.546 0 007.29-1.218 5.185 5.185 0 003.198-3.46c.663-2.714.943-5.507.832-8.299V129.92a29.784 29.784 0 00-.832-8.298 5.188 5.188 0 00-3.197-3.46A25.51 25.51 0 00-26 116.944V113.9h45.055v3.044a19.604 19.604 0 00-6.395 1.218 4.867 4.867 0 00-2.654 3.46 36.082 36.082 0 00-.672 8.298v74.942a27.804 27.804 0 00.896 8.363 5.642 5.642 0 003.453 3.62 23.9 23.9 0 007.866.994h7.675a23.9 23.9 0 007.866-.994 5.622 5.622 0 003.517-3.62 28.892 28.892 0 00.896-8.363V129.92a36.081 36.081 0 00-.896-8.298 4.866 4.866 0 00-2.654-3.46 19.603 19.603 0 00-6.395-1.218V113.9h43.584v3.044c-2.185.038-4.348.45-6.395 1.218a4.894 4.894 0 00-2.558 3.46 36.082 36.082 0 00-.672 8.298v74.942a24.43 24.43 0 001.023 8.203 6.162 6.162 0 003.55 3.62 23.463 23.463 0 007.642 1.154h7.643a23.55 23.55 0 007.834-.994 5.786 5.786 0 003.453-3.62 27.579 27.579 0 00.928-8.363V129.92a36.087 36.087 0 00-.672-8.298 4.876 4.876 0 00-2.654-3.46 19.604 19.604 0 00-6.395-1.218V113.9H132.7v3.044z" fill="#fff"/><path d="M187.492 178.064l-14.982-41.066-15.788 41.066h30.77zm42.595 38.42a8.474 8.474 0 004.961 2.42v3.032H188.91v-3.032a23.019 23.019 0 008.183-1.452 4.129 4.129 0 002.417-4.032 21.17 21.17 0 00-1.772-7.291l-9.118-25.13h-33.026l-3.93 10.452a52.059 52.059 0 00-4.221 16.936 8.557 8.557 0 003.286 8.097 20.58 20.58 0 0010.085 2.484V222h-30.416v-3.032c4.984-.903 9.28-6.28 12.888-16.129l34.862-88.939h10.536l36.86 95.197a18.476 18.476 0 004.543 7.387z" fill="#fff"/></svg>