<svg width="102" height="80" fill="none" xmlns="http://www.w3.org/2000/svg"><path d="M66.981 22.691h0l.004-.005c3.606-4.737 8.301-8.983 14.094-12.733h0l.007-.005C86.631 6.213 93.432 3.118 101.5.672v10.846c-9.065 2.938-15.778 6.524-20.088 10.786-4.37 4.322-6.574 9.329-6.574 15.002 0 1.938.53 3.616 1.61 5.004l.005.008.005.007c1.042 1.244 2.36 2.336 3.948 3.28a63.799 63.799 0 004.952 2.92 28.4 28.4 0 014.837 3.258c1.498 1.247 2.733 2.761 3.707 4.548.954 1.844 1.445 4.153 1.445 6.95 0 5.32-1.688 9.307-5.011 12.048-3.454 2.773-7.713 4.171-12.81 4.171-2.852 0-5.52-.54-8.006-1.617l-.007-.003-.007-.003c-2.48-.984-4.7-2.507-6.658-4.576h0l-.007-.008c-1.946-1.966-3.46-4.478-4.532-7.551l-.003-.009-.004-.008c-1.158-2.97-1.743-6.407-1.743-10.32 0-5.94.814-11.696 2.441-17.268 1.622-5.556 4.282-10.704 7.981-15.446zm-56.059 0l.004-.005c3.606-4.737 8.301-8.983 14.094-12.733h0l.007-.005c5.545-3.735 12.346-6.83 20.414-9.276v10.847c-8.974 2.938-15.641 6.524-19.95 10.784-4.46 4.32-6.712 9.327-6.712 15.003 0 1.938.53 3.616 1.61 5.004l.005.008.006.007c1.041 1.244 2.36 2.336 3.947 3.28a63.799 63.799 0 004.952 2.92 28.4 28.4 0 014.837 3.258c1.498 1.247 2.733 2.761 3.706 4.548.955 1.844 1.446 4.153 1.446 6.95 0 5.32-1.69 9.31-5.014 12.05-3.36 2.77-7.572 4.169-12.67 4.169-2.853 0-5.52-.54-8.006-1.617l-.01-.004-.01-.004a17.071 17.071 0 01-6.644-4.566l-.008-.008-.008-.008c-1.948-1.97-3.508-4.486-4.673-7.563l-.002-.005C1.085 62.755.5 59.318.5 55.405c0-5.94.814-11.696 2.441-17.268 1.622-5.556 4.282-10.704 7.981-15.446z" stroke="#E94362"/></svg>