<svg width="30" height="30" fill="none" xmlns="http://www.w3.org/2000/svg"><path d="M8.906 4.688c-3.878 0-7.031 3.19-7.031 7.03 0 1.341.608 2.502 1.172 3.34a8.671 8.671 0 001.142 1.378l10.137 10.166.674.673.674-.673L25.81 16.436s2.314-2.04 2.314-4.717c0-3.842-3.153-7.031-7.031-7.031-3.22 0-5.292 1.937-6.094 2.753-.802-.816-2.875-2.753-6.094-2.753zm0 1.875c2.802 0 5.39 2.724 5.39 2.724l.704.791.703-.79s2.59-2.726 5.39-2.726c2.854 0 5.157 2.34 5.157 5.157 0 1.446-1.758 3.398-1.758 3.398L15 24.61l-9.492-9.492s-.454-.436-.908-1.113c-.454-.678-.85-1.56-.85-2.285 0-2.816 2.303-5.156 5.156-5.156z" fill="#fff"/></svg>