<svg width="22" height="23" fill="none" xmlns="http://www.w3.org/2000/svg"><path d="M4.438.75v.938H.688v20.625h20.625V1.688h-3.75V.75h-1.875v.938H6.312V.75H4.438zM2.563 3.563h1.874V4.5h1.875v-.938h9.375V4.5h1.876v-.938h1.875v1.876H2.563V3.563zm0 3.75h16.875v13.125H2.563V7.313zm5.624 1.875v1.874h1.876V9.188H8.187zm3.75 0v1.874h1.876V9.188h-1.876zm3.75 0v1.874h1.876V9.188h-1.875zm-11.25 3.75v1.874h1.875v-1.874H4.438zm3.75 0v1.874h1.876v-1.874H8.187zm3.75 0v1.874h1.876v-1.874h-1.876zm3.75 0v1.874h1.876v-1.874h-1.875zm-11.25 3.75v1.875h1.875v-1.875H4.438zm3.75 0v1.875h1.876v-1.875H8.187zm3.75 0v1.875h1.876v-1.875h-1.876z" fill="#fff"/></svg>