<svg width="18" height="26" fill="none" xmlns="http://www.w3.org/2000/svg"><path d="M9 .813C4.353.813.562 4.603.562 9.25c0 1.318.535 2.83 1.26 4.482.725 1.652 1.66 3.406 2.608 5.04a95.087 95.087 0 003.808 6.005L9 25.891l.762-1.114s1.911-2.735 3.808-6.006c.949-1.633 1.883-3.387 2.608-5.039.725-1.651 1.26-3.164 1.26-4.482 0-4.647-3.79-8.438-8.438-8.438zm0 1.875a6.547 6.547 0 016.563 6.562c0 .75-.403 2.172-1.085 3.72-.68 1.55-1.622 3.267-2.548 4.864-1.473 2.541-2.388 3.886-2.93 4.688-.542-.802-1.458-2.146-2.93-4.688-.926-1.597-1.867-3.314-2.549-4.863-.68-1.55-1.083-2.97-1.083-3.721A6.547 6.547 0 019 2.687zm0 4.687a1.874 1.874 0 100 3.75 1.874 1.874 0 100-3.75z" fill="#fff"/></svg>