<svg width="18" height="14" fill="none" xmlns="http://www.w3.org/2000/svg"><path fill-rule="evenodd" clip-rule="evenodd" d="M16.774 1.806c.522.527.524 1.384.005 1.913l-8.25 8.413a1.32 1.32 0 01-1.861.03L1.418 7.13a1.367 1.367 0 01-.054-1.913 1.32 1.32 0 011.885-.054l4.305 4.125 7.334-7.478a1.32 1.32 0 011.886-.005z" fill="#304659"/><path fill-rule="evenodd" clip-rule="evenodd" d="M14.531 1.46a1.82 1.82 0 012.598-.006c.714.721.717 1.89.006 2.615l-8.25 8.413a1.82 1.82 0 01-2.563.04l-5.25-5.03a1.867 1.867 0 01-.074-2.614 1.82 1.82 0 012.597-.075l3.948 3.783 6.988-7.125zm1.888.698a.82.82 0 00-1.174.003L7.911 9.64a.5.5 0 01-.703.01L2.903 5.525a.82.82 0 00-1.173.034.867.867 0 00.034 1.21l5.25 5.032a.82.82 0 001.157-.019l8.25-8.413a.867.867 0 00-.002-1.211z" fill="#304659"/></svg>