<svg width="24" height="24" fill="none" xmlns="http://www.w3.org/2000/svg"><path fill-rule="evenodd" clip-rule="evenodd" d="M12 2.5c-5.37 0-9.722 4.353-9.722 9.722 0 5.37 4.353 9.723 9.722 9.723 5.37 0 9.722-4.353 9.722-9.723A9.721 9.721 0 0012 2.5zM.722 12.222C.722 5.994 5.772.945 12 .945c6.229 0 11.278 5.049 11.278 11.277 0 6.229-5.05 11.278-11.278 11.278C5.77 23.5.722 18.45.722 12.222z" fill="#fff"/><path fill-rule="evenodd" clip-rule="evenodd" d="M12 5.32c.43 0 .778.348.778.777v5.348h5.347a.778.778 0 110 1.555H12a.778.778 0 01-.778-.778V6.097c0-.43.348-.777.778-.777z" fill="#fff"/></svg>