<svg width="16" height="25" fill="none" xmlns="http://www.w3.org/2000/svg"><path fill-rule="evenodd" clip-rule="evenodd" d="M14.222 21.847a.972.972 0 01-.972.973H2.75a.972.972 0 01-.972-.973V2.597c0-.537.435-.972.972-.972h10.5c.537 0 .972.435.972.972v19.25zm-.972 2.528a2.528 2.528 0 002.528-2.528V2.597A2.528 2.528 0 0013.25.07H2.75A2.528 2.528 0 00.222 2.597v19.25a2.528 2.528 0 002.528 2.528h10.5z" fill="#fff"/><path fill-rule="evenodd" clip-rule="evenodd" d="M3.722 20.097c0 .43.348.778.778.778h7a.778.778 0 100-1.555h-7a.778.778 0 00-.778.777z" fill="#fff"/></svg>