<svg width="70" height="54" fill="none" xmlns="http://www.w3.org/2000/svg"><path opacity=".9" d="M70 10.525c0 1.21-.421 2.238-1.264 3.085L36.038 46.454l-6.142 6.17c-.843.846-1.867 1.27-3.071 1.27-1.204 0-2.228-.424-3.071-1.27l-6.142-6.17L1.265 30.032C.422 29.185 0 28.157 0 26.947s.422-2.238 1.265-3.085l6.141-6.17c.843-.846 1.867-1.27 3.071-1.27 1.205 0 2.228.424 3.071 1.27l13.278 13.383L56.452 1.27C57.295.423 58.318 0 59.522 0c1.205 0 2.229.423 3.072 1.27l6.142 6.17C69.579 8.287 70 9.315 70 10.525z" fill="#E6F6C1"/></svg>