<svg xmlns="http://www.w3.org/2000/svg" xml:space="preserve" width="94" height="94" style="shape-rendering:geometricPrecision;text-rendering:geometricPrecision;image-rendering:optimizeQuality;fill-rule:evenodd;clip-rule:evenodd" viewBox="0 0 1.05 1.05"><defs><style>.fil0{fill:#fff;fill-rule:nonzero}</style></defs><g id="Слой_x0020_1"><path class="fil0" d="M.71.62.57.51V.28C.57.26.55.24.53.24.5.24.49.26.49.28v.25c0 .01 0 .02.01.03l.16.12c.01.01.02.01.03.01C.7.69.71.69.72.68.73.66.73.63.71.62z"/><path class="fil0" d="M.53 0C.24 0 0 .24 0 .53c0 .29.24.52.53.52.29 0 .52-.23.52-.52C1.05.24.82 0 .53 0zm0 .97C.28.97.08.77.08.53c0-.25.2-.45.45-.45a.446.446 0 0 1 0 .89z"/></g></svg>