<svg width="19" height="19" fill="none" xmlns="http://www.w3.org/2000/svg"><g clip-path="url(#clip0)"><path d="M7.914 10.61a10.273 10.273 0 003.355 2.915l2.095-1.23a.338.338 0 01.38.054l3.174 2.748a1.01 1.01 0 01-.06 1.611l-1.868 1.385a2.017 2.017 0 01-1.888.277 17.695 17.695 0 01-7.924-5.71A17.04 17.04 0 011.743 3.6a1.906 1.906 0 01.801-1.694L4.474.509A1.009 1.009 0 016.01.89l1.837 3.78a.318.318 0 01-.053.375L5.998 6.67a9.96 9.96 0 001.916 3.94z" fill="#304659"/></g><defs><clipPath id="clip0"><path fill="#fff" d="M0 0h19v19H0z"/></clipPath></defs></svg>