<svg width="39" height="38" fill="none" xmlns="http://www.w3.org/2000/svg"><rect x=".838" width="37.838" height="37.838" rx="8" fill="#4D7198"/><path d="M28.365 21.702c1.767 1.611 2.132 2.383 2.19 2.484.729 1.186-.799 1.276-.799 1.276l-2.941.044s-.638.124-1.46-.436c-1.105-.738-2.165-2.674-2.952-2.417-.81.258-.786 1.992-.786 1.992s0 .246-.183.436c-.205.213-.604.135-.604.135h-1.311s-2.907.29-5.45-2.317c-2.792-2.841-5.255-8.436-5.255-8.436s-.136-.336.012-.526c.17-.179.65-.179.65-.179h3.146s.308 0 .502.18c.17.122.273.38.273.38s.502 1.242 1.186 2.383c1.31 2.226 1.915 2.708 2.337 2.473.684-.347.49-3.145.49-3.145s.011-1.018-.33-1.465c-.263-.347-.764-.459-.981-.481-.182-.023.114-.425.49-.616.57-.268 1.562-.268 2.748-.268.923 0 1.185.067 1.539.145 1.094.258.718 1.253.718 3.625 0 .772-.114 1.824.422 2.193.239.157.832.023 2.314-2.428.684-1.163 1.208-2.54 1.208-2.54s.114-.234.285-.346c.183-.09.433-.09.433-.09h3.306s1.004-.112 1.163.325c.171.458-.376 1.544-1.733 3.3-2.211 2.91-2.462 2.641-.627 4.32z" fill="#fff"/></svg>