<svg width="19" height="19" fill="none" xmlns="http://www.w3.org/2000/svg"><path d="M9.502 1h-.004C4.81 1 1 4.812 1 9.5c0 1.86.6 3.583 1.618 4.982l-1.06 3.158 3.268-1.045A8.426 8.426 0 009.502 18C14.19 18 18 14.187 18 9.5 18 4.813 14.189 1 9.502 1z" fill="#4CAF50"/><path d="M14.821 12.794c-.204.556-1.012 1.017-1.657 1.152-.441.09-1.017.163-2.957-.615-2.482-.993-4.08-3.431-4.204-3.59C5.883 9.585 5 8.452 5 7.28s.615-1.742.863-1.987c.204-.201.54-.293.864-.293.104 0 .198.005.283.01.248.01.372.024.536.402.204.475.7 1.646.759 1.766.06.12.12.284.036.442-.08.164-.15.236-.274.375-.124.139-.243.245-.367.394-.114.13-.243.268-.1.508.144.234.64 1.017 1.37 1.646.943.81 1.707 1.07 1.98 1.18.205.082.447.063.596-.09.189-.197.422-.524.66-.845.169-.231.382-.26.606-.178.228.077 1.434.653 1.682.772.248.12.412.178.472.279.059.101.059.575-.145 1.133z" fill="#FAFAFA"/></svg>